<svg xmlns="http://www.w3.org/2000/svg" viewBox="0 0 1440 1080" width="1440" height="1080" preserveAspectRatio="xMidYMid slice" style="width: 100%; height: 100%; transform: translate3d(0px, 0px, 0px); content-visibility: visible;"><defs><clipPath id="__lottie_element_148"><rect width="1440" height="1080" x="0" y="0"></rect></clipPath><clipPath id="__lottie_element_150"><path d="M0,0 L1086,0 L1086,661 L0,661z"></path></clipPath><radialGradient id="__lottie_element_169" spreadMethod="pad" gradientUnits="userSpaceOnUse"><stop></stop><stop></stop><stop></stop></radialGradient><radialGradient id="__lottie_element_173" spreadMethod="pad" gradientUnits="userSpaceOnUse"><stop></stop><stop></stop><stop></stop></radialGradient><radialGradient id="__lottie_element_177" spreadMethod="pad" gradientUnits="userSpaceOnUse"><stop></stop><stop></stop><stop></stop></radialGradient><radialGradient id="__lottie_element_181" spreadMethod="pad" gradientUnits="userSpaceOnUse"><stop></stop><stop></stop><stop></stop></radialGradient><radialGradient id="__lottie_element_185" spreadMethod="pad" gradientUnits="userSpaceOnUse"><stop></stop><stop></stop><stop></stop></radialGradient><radialGradient id="__lottie_element_189" spreadMethod="pad" gradientUnits="userSpaceOnUse"><stop></stop><stop></stop><stop></stop></radialGradient><radialGradient id="__lottie_element_193" spreadMethod="pad" gradientUnits="userSpaceOnUse"><stop></stop><stop></stop><stop></stop></radialGradient><radialGradient id="__lottie_element_197" spreadMethod="pad" gradientUnits="userSpaceOnUse"><stop></stop><stop></stop><stop></stop></radialGradient><radialGradient id="__lottie_element_201" spreadMethod="pad" gradientUnits="userSpaceOnUse"><stop></stop><stop></stop><stop></stop></radialGradient><radialGradient id="__lottie_element_205" spreadMethod="pad" gradientUnits="userSpaceOnUse"><stop></stop><stop></stop><stop></stop></radialGradient><radialGradient id="__lottie_element_209" spreadMethod="pad" gradientUnits="userSpaceOnUse"><stop></stop><stop></stop><stop></stop></radialGradient><radialGradient id="__lottie_element_213" spreadMethod="pad" gradientUnits="userSpaceOnUse"><stop></stop><stop></stop><stop></stop></radialGradient><radialGradient id="__lottie_element_217" spreadMethod="pad" gradientUnits="userSpaceOnUse"><stop></stop><stop></stop><stop></stop></radialGradient><radialGradient id="__lottie_element_221" spreadMethod="pad" gradientUnits="userSpaceOnUse"><stop></stop><stop></stop><stop></stop></radialGradient><radialGradient id="__lottie_element_225" spreadMethod="pad" gradientUnits="userSpaceOnUse"><stop></stop><stop></stop><stop></stop></radialGradient><radialGradient id="__lottie_element_229" spreadMethod="pad" gradientUnits="userSpaceOnUse"><stop></stop><stop></stop><stop></stop></radialGradient><radialGradient id="__lottie_element_233" spreadMethod="pad" gradientUnits="userSpaceOnUse"><stop></stop><stop></stop><stop></stop></radialGradient><clipPath id="__lottie_element_241"><path d="M0,0 L1086,0 L1086,661 L0,661z"></path></clipPath><radialGradient id="__lottie_element_260" spreadMethod="pad" gradientUnits="userSpaceOnUse"><stop></stop><stop></stop><stop></stop></radialGradient><radialGradient id="__lottie_element_264" spreadMethod="pad" gradientUnits="userSpaceOnUse"><stop></stop><stop></stop><stop></stop></radialGradient><radialGradient id="__lottie_element_268" spreadMethod="pad" gradientUnits="userSpaceOnUse"><stop></stop><stop></stop><stop></stop></radialGradient><radialGradient id="__lottie_element_272" spreadMethod="pad" gradientUnits="userSpaceOnUse"><stop></stop><stop></stop><stop></stop></radialGradient><radialGradient id="__lottie_element_276" spreadMethod="pad" gradientUnits="userSpaceOnUse"><stop></stop><stop></stop><stop></stop></radialGradient><radialGradient id="__lottie_element_280" spreadMethod="pad" gradientUnits="userSpaceOnUse"><stop></stop><stop></stop><stop></stop></radialGradient><radialGradient id="__lottie_element_284" spreadMethod="pad" gradientUnits="userSpaceOnUse"><stop></stop><stop></stop><stop></stop></radialGradient><radialGradient id="__lottie_element_288" spreadMethod="pad" gradientUnits="userSpaceOnUse"><stop></stop><stop></stop><stop></stop></radialGradient><radialGradient id="__lottie_element_292" spreadMethod="pad" gradientUnits="userSpaceOnUse"><stop></stop><stop></stop><stop></stop></radialGradient><radialGradient id="__lottie_element_296" spreadMethod="pad" gradientUnits="userSpaceOnUse"><stop></stop><stop></stop><stop></stop></radialGradient><radialGradient id="__lottie_element_300" spreadMethod="pad" gradientUnits="userSpaceOnUse"><stop></stop><stop></stop><stop></stop></radialGradient><radialGradient id="__lottie_element_304" spreadMethod="pad" gradientUnits="userSpaceOnUse"><stop></stop><stop></stop><stop></stop></radialGradient><radialGradient id="__lottie_element_308" spreadMethod="pad" gradientUnits="userSpaceOnUse"><stop></stop><stop></stop><stop></stop></radialGradient><radialGradient id="__lottie_element_312" spreadMethod="pad" gradientUnits="userSpaceOnUse"><stop></stop><stop></stop><stop></stop></radialGradient><radialGradient id="__lottie_element_316" spreadMethod="pad" gradientUnits="userSpaceOnUse"><stop></stop><stop></stop><stop></stop></radialGradient><radialGradient id="__lottie_element_320" spreadMethod="pad" gradientUnits="userSpaceOnUse"><stop></stop><stop></stop><stop></stop></radialGradient><radialGradient id="__lottie_element_324" spreadMethod="pad" gradientUnits="userSpaceOnUse"><stop></stop><stop></stop><stop></stop></radialGradient><clipPath id="__lottie_element_332"><path d="M0,0 L1086,0 L1086,661 L0,661z"></path></clipPath><radialGradient id="__lottie_element_351" spreadMethod="pad" gradientUnits="userSpaceOnUse" cx="-26.5" cy="11" r="50.566787519082126" fx="-26.5" fy="11"><stop offset="0%" stop-color="rgb(62,40,163)"></stop><stop offset="70%" stop-color="rgb(31,122,209)"></stop><stop offset="93%" stop-color="rgb(0,204,255)"></stop></radialGradient><radialGradient id="__lottie_element_355" spreadMethod="pad" gradientUnits="userSpaceOnUse" cx="-23.5" cy="10.5" r="47.185802949616104" fx="-23.5" fy="10.5"><stop offset="0%" stop-color="rgb(62,40,163)"></stop><stop offset="70%" stop-color="rgb(31,122,209)"></stop><stop offset="93%" stop-color="rgb(0,204,255)"></stop></radialGradient><radialGradient id="__lottie_element_359" spreadMethod="pad" gradientUnits="userSpaceOnUse" cx="-21" cy="14" r="46.87216658103186" fx="-21" fy="14"><stop offset="0%" stop-color="rgb(62,40,163)"></stop><stop offset="70%" stop-color="rgb(31,122,209)"></stop><stop offset="93%" stop-color="rgb(0,204,255)"></stop></radialGradient><radialGradient id="__lottie_element_363" spreadMethod="pad" gradientUnits="userSpaceOnUse" cx="-24" cy="10" r="48.76474136094644" fx="-24" fy="10"><stop offset="0%" stop-color="rgb(62,40,163)"></stop><stop offset="70%" stop-color="rgb(31,122,209)"></stop><stop offset="93%" stop-color="rgb(0,204,255)"></stop></radialGradient><radialGradient id="__lottie_element_367" spreadMethod="pad" gradientUnits="userSpaceOnUse" cx="-28" cy="11" r="53.71219600798314" fx="-28" fy="11"><stop offset="0%" stop-color="rgb(62,40,163)"></stop><stop offset="70%" stop-color="rgb(31,122,209)"></stop><stop offset="93%" stop-color="rgb(0,204,255)"></stop></radialGradient><radialGradient id="__lottie_element_371" spreadMethod="pad" gradientUnits="userSpaceOnUse" cx="-27" cy="15" r="55.072679252057455" fx="-27" fy="15"><stop offset="0%" stop-color="rgb(62,40,163)"></stop><stop offset="70%" stop-color="rgb(31,122,209)"></stop><stop offset="93%" stop-color="rgb(0,204,255)"></stop></radialGradient><radialGradient id="__lottie_element_375" spreadMethod="pad" gradientUnits="userSpaceOnUse" cx="-24.5" cy="10" r="44.93606569338264" fx="-24.5" fy="10"><stop offset="0%" stop-color="rgb(62,40,163)"></stop><stop offset="70%" stop-color="rgb(31,122,209)"></stop><stop offset="93%" stop-color="rgb(0,204,255)"></stop></radialGradient><radialGradient id="__lottie_element_379" spreadMethod="pad" gradientUnits="userSpaceOnUse" cx="-26" cy="10" r="48.075461516245475" fx="-26" fy="10"><stop offset="0%" stop-color="rgb(62,40,163)"></stop><stop offset="70%" stop-color="rgb(31,122,209)"></stop><stop offset="93%" stop-color="rgb(0,204,255)"></stop></radialGradient><radialGradient id="__lottie_element_383" spreadMethod="pad" gradientUnits="userSpaceOnUse" cx="-23.5" cy="7.5" r="43.660622991432454" fx="-23.5" fy="7.5"><stop offset="0%" stop-color="rgb(62,40,163)"></stop><stop offset="70%" stop-color="rgb(31,122,209)"></stop><stop offset="93%" stop-color="rgb(0,204,255)"></stop></radialGradient><radialGradient id="__lottie_element_387" spreadMethod="pad" gradientUnits="userSpaceOnUse" cx="-23.875" cy="11.375" r="46.08958667638494" fx="-23.651898454253374" fy="14.14754475543867"><stop offset="0%" stop-color="rgb(62,40,163)"></stop><stop offset="70%" stop-color="rgb(31,122,209)"></stop><stop offset="93%" stop-color="rgb(0,204,255)"></stop></radialGradient><radialGradient id="__lottie_element_391" spreadMethod="pad" gradientUnits="userSpaceOnUse" cx="-24" cy="10" r="47.53945729601885" fx="-24" fy="10"><stop offset="0%" stop-color="rgb(62,40,163)"></stop><stop offset="70%" stop-color="rgb(31,122,209)"></stop><stop offset="93%" stop-color="rgb(0,204,255)"></stop></radialGradient><radialGradient id="__lottie_element_395" spreadMethod="pad" gradientUnits="userSpaceOnUse" cx="-24" cy="15" r="47.43416490252569" fx="-24" fy="15"><stop offset="0%" stop-color="rgb(62,40,163)"></stop><stop offset="70%" stop-color="rgb(31,122,209)"></stop><stop offset="93%" stop-color="rgb(0,204,255)"></stop></radialGradient><radialGradient id="__lottie_element_399" spreadMethod="pad" gradientUnits="userSpaceOnUse" cx="-26" cy="14" r="46.61544808322666" fx="-26" fy="14"><stop offset="0%" stop-color="rgb(62,40,163)"></stop><stop offset="70%" stop-color="rgb(31,122,209)"></stop><stop offset="93%" stop-color="rgb(0,204,255)"></stop></radialGradient><radialGradient id="__lottie_element_403" spreadMethod="pad" gradientUnits="userSpaceOnUse" cx="-26" cy="12" r="52.392747589718944" fx="-26" fy="12"><stop offset="0%" stop-color="rgb(62,40,163)"></stop><stop offset="70%" stop-color="rgb(31,122,209)"></stop><stop offset="93%" stop-color="rgb(0,204,255)"></stop></radialGradient><radialGradient id="__lottie_element_407" spreadMethod="pad" gradientUnits="userSpaceOnUse" cx="-22" cy="14" r="43.56604182158393" fx="-22" fy="14"><stop offset="0%" stop-color="rgb(62,40,163)"></stop><stop offset="70%" stop-color="rgb(31,122,209)"></stop><stop offset="93%" stop-color="rgb(0,204,255)"></stop></radialGradient><radialGradient id="__lottie_element_411" spreadMethod="pad" gradientUnits="userSpaceOnUse" cx="-26" cy="13" r="51.07837115648854" fx="-26" fy="13"><stop offset="0%" stop-color="rgb(62,40,163)"></stop><stop offset="70%" stop-color="rgb(31,122,209)"></stop><stop offset="93%" stop-color="rgb(0,204,255)"></stop></radialGradient><radialGradient id="__lottie_element_415" spreadMethod="pad" gradientUnits="userSpaceOnUse" cx="-23.5" cy="7.5" r="48.00260409602796" fx="-23.5" fy="7.5"><stop offset="0%" stop-color="rgb(62,40,163)"></stop><stop offset="70%" stop-color="rgb(31,122,209)"></stop><stop offset="93%" stop-color="rgb(0,204,255)"></stop></radialGradient><linearGradient id="__lottie_element_425" spreadMethod="pad" gradientUnits="userSpaceOnUse"><stop></stop><stop></stop><stop></stop><stop></stop><stop></stop></linearGradient><linearGradient id="__lottie_element_429" spreadMethod="pad" gradientUnits="userSpaceOnUse"><stop></stop><stop></stop><stop></stop><stop></stop><stop></stop></linearGradient><linearGradient id="__lottie_element_433" spreadMethod="pad" gradientUnits="userSpaceOnUse"><stop></stop><stop></stop><stop></stop><stop></stop><stop></stop></linearGradient><linearGradient id="__lottie_element_437" spreadMethod="pad" gradientUnits="userSpaceOnUse"><stop></stop><stop></stop><stop></stop><stop></stop><stop></stop></linearGradient><linearGradient id="__lottie_element_441" spreadMethod="pad" gradientUnits="userSpaceOnUse"><stop></stop><stop></stop><stop></stop><stop></stop><stop></stop></linearGradient><linearGradient id="__lottie_element_445" spreadMethod="pad" gradientUnits="userSpaceOnUse"><stop></stop><stop></stop><stop></stop><stop></stop><stop></stop></linearGradient><linearGradient id="__lottie_element_450" spreadMethod="pad" gradientUnits="userSpaceOnUse" x1="216" y1="-52" x2="410" y2="458"><stop offset="0%" stop-color="rgb(0,204,255)"></stop><stop offset="26%" stop-color="rgb(31,122,209)"></stop><stop offset="43%" stop-color="rgb(62,40,163)"></stop><stop offset="71%" stop-color="rgb(31,20,82)"></stop><stop offset="98%" stop-color="rgb(0,0,0)"></stop></linearGradient><linearGradient id="__lottie_element_453" spreadMethod="pad" gradientUnits="userSpaceOnUse" x1="350" y1="140" x2="370" y2="476"><stop offset="0%" stop-color="rgb(34,200,255)"></stop><stop offset="24%" stop-color="rgb(18,101,156)"></stop><stop offset="64%" stop-color="rgb(2,2,57)"></stop><stop offset="73%" stop-color="rgb(1,1,29)"></stop><stop offset="82%" stop-color="rgb(0,0,0)"></stop></linearGradient><linearGradient id="__lottie_element_457" spreadMethod="pad" gradientUnits="userSpaceOnUse" x1="350" y1="140" x2="658" y2="542"><stop offset="0%" stop-color="rgb(34,200,255)"></stop><stop offset="24%" stop-color="rgb(18,101,156)"></stop><stop offset="64%" stop-color="rgb(2,2,57)"></stop><stop offset="73%" stop-color="rgb(1,1,29)"></stop><stop offset="82%" stop-color="rgb(0,0,0)"></stop></linearGradient></defs><g clip-path="url(#__lottie_element_148)"><g transform="matrix(1,0,0,1,720.0005493164062,528.1934814453125)" opacity="1" style="display: block;"><g opacity="1" transform="matrix(1,0,0,1,0,0)"><path fill="url(#__lottie_element_450)" fill-opacity="1" d=" M356,138.5 C356,138.5 119.5,218.5 119.5,218.5 C119.5,218.5 141.14100646972656,550.1740112304688 141.14100646972656,550.1740112304688 C141.14100646972656,550.1740112304688 655.2670288085938,543.5440063476562 655.2670288085938,543.5440063476562 C655.2670288085938,543.5440063476562 356,138.5 356,138.5z"></path></g></g><g transform="matrix(1,0,0,1,720.0005493164062,528.1934814453125)" opacity="1" style="display: block;"><g opacity="1" transform="matrix(1,0,0,1,0,0)"><path stroke="url(#__lottie_element_457)" stroke-linecap="butt" stroke-linejoin="miter" fill-opacity="0" stroke-miterlimit="4" stroke-opacity="1" stroke-width="2" d=" M352,134 C352,134 656,544 656,544"></path></g></g><g transform="matrix(1,0,0,1,486.00054931640625,616.1934814453125)" opacity="1" style="display: block;"><g opacity="1" transform="matrix(1,0,0,1,0,0)"><path stroke="url(#__lottie_element_453)" stroke-linecap="butt" stroke-linejoin="miter" fill-opacity="0" stroke-miterlimit="4" stroke-opacity="1" stroke-width="2" d=" M353,129.5 C353,129.5 376.25,461.5 376.25,461.5"></path></g></g><g style="display: none;"><g><path stroke="url(#__lottie_element_445)" stroke-linecap="butt" stroke-linejoin="miter" fill-opacity="0" stroke-miterlimit="4"></path></g></g><g style="display: none;"><g><path stroke="url(#__lottie_element_441)" stroke-linecap="butt" stroke-linejoin="miter" fill-opacity="0" stroke-miterlimit="4"></path></g></g><g style="display: none;"><g><path stroke="url(#__lottie_element_437)" stroke-linecap="butt" stroke-linejoin="miter" fill-opacity="0" stroke-miterlimit="4"></path></g></g><g style="display: none;"><g><path stroke="url(#__lottie_element_433)" stroke-linecap="butt" stroke-linejoin="miter" fill-opacity="0" stroke-miterlimit="4"></path></g></g><g style="display: none;"><g><path fill="url(#__lottie_element_429)"></path></g></g><g style="display: none;"><g><path fill="url(#__lottie_element_425)"></path></g></g><g clip-path="url(#__lottie_element_332)" transform="matrix(0.9510565400123596,-0.30901700258255005,0.30901700258255005,0.9510565400123596,271.4461669921875,388.6654052734375)" opacity="1" style="display: block;"><g transform="matrix(1,0,0,1,274.4280090332031,399.635986328125)" opacity="1" style="display: block;"><path stroke-linecap="butt" stroke-linejoin="miter" fill-opacity="0" stroke-miterlimit="4" stroke="rgb(0,204,255)" stroke-opacity="1" stroke-width="4" d=" M1.88,47.83 C31.75,67.75 113.88,105.46 122.72,107.98 C145.07,114.36 212.71,123.11 280.82,123.24 C351.57,123.36 432.75,108.75 445,101.85 C457.26,94.96 525.02,66.22 534.98,51.66 C544.94,37.11 293.71,1.88 293.71,1.88 C293.71,1.88 1.88,47.83 1.88,47.83z"></path><g opacity="1" transform="matrix(1,0,0,1,273.4070129394531,60.0880012512207)"><path fill="rgb(0,0,0)" fill-opacity="1" d=" M-271.5320129394531,-12.255999565124512 C-241.66000366210938,7.658999919891357 -159.52999877929688,45.369998931884766 -150.69200134277344,47.893001556396484 C-128.3350067138672,54.2760009765625 -60.696998596191406,63.025001525878906 7.408999919891357,63.14799880981445 C78.16500091552734,63.2760009765625 159.33999633789062,48.65999984741211 171.5959930419922,41.76599884033203 C183.8509979248047,34.87300109863281 251.61700439453125,6.126999855041504 261.5740051269531,-8.425999641418457 C271.5320129394531,-22.979000091552734 20.29800033569336,-58.21200180053711 20.29800033569336,-58.21200180053711 C20.29800033569336,-58.21200180053711 -271.5320129394531,-12.255999565124512 -271.5320129394531,-12.255999565124512z"></path></g></g><g transform="matrix(0.9873700141906738,0,0,1,573.6084594726562,324.5)" opacity="1" style="display: block;"><g opacity="1" transform="matrix(1,0,0,1,-31,44.5)"><path fill="rgb(0,0,0)" fill-opacity="1" d=" M0,-127 C245.04359436035156,-127 444,-70.09130096435547 444,0 C444,70.09130096435547 245.04359436035156,127 0,127 C-245.04359436035156,127 -444,70.09130096435547 -444,0 C-444,-70.09130096435547 -245.04359436035156,-127 0,-127z"></path><path stroke-linecap="butt" stroke-linejoin="miter" fill-opacity="0" stroke-miterlimit="4" stroke="rgb(0,204,255)" stroke-opacity="1" stroke-width="2" d=" M0,-127 C245.04359436035156,-127 444,-70.09130096435547 444,0 C444,70.09130096435547 245.04359436035156,127 0,127 C-245.04359436035156,127 -444,70.09130096435547 -444,0 C-444,-70.09130096435547 -245.04359436035156,-127 0,-127z"></path></g></g><g transform="matrix(1,0,0,1,489.7354431152344,244.84007263183594)" opacity="1" style="display: block;"><path stroke-linecap="butt" stroke-linejoin="miter" fill-opacity="0" stroke-miterlimit="4" stroke="rgb(0,204,255)" stroke-opacity="1" stroke-width="4" d=" M26.8,1.88 C13.03,1.88 1.88,13.03 1.88,26.8 C1.88,30.71 13.24,35.35 27.01,35.35 C40.77,35.35 51.73,31.05 51.73,26.8 C51.73,13.03 40.57,1.88 26.8,1.88z"></path><g opacity="1" transform="matrix(1,0,0,1,26.802000045776367,18.611000061035156)"><path fill="url(#__lottie_element_415)" fill-opacity="1" d=" M0,-16.736000061035156 C-13.767000198364258,-16.736000061035156 -24.927000045776367,-5.576000213623047 -24.927000045776367,8.190999984741211 C-24.927000045776367,12.097000122070312 -13.562999725341797,16.736000061035156 0.20399999618530273,16.736000061035156 C13.970999717712402,16.736000061035156 24.927000045776367,12.437000274658203 24.927000045776367,8.190999984741211 C24.927000045776367,-5.576000213623047 13.767000198364258,-16.736000061035156 0,-16.736000061035156z"></path></g></g><g transform="matrix(1,0,0,1,379.92205810546875,247.41110229492188)" opacity="1" style="display: block;"><path stroke-linecap="butt" stroke-linejoin="miter" fill-opacity="0" stroke-miterlimit="4" stroke="rgb(0,204,255)" stroke-opacity="1" stroke-width="4" d=" M26.8,1.88 C13.03,1.88 1.88,13.03 1.88,26.8 C1.88,30.71 13.24,35.35 27.01,35.35 C40.77,35.35 51.73,31.05 51.73,26.8 C51.73,13.03 40.57,1.88 26.8,1.88z"></path><g opacity="1" transform="matrix(1,0,0,1,26.802000045776367,18.611000061035156)"><path fill="url(#__lottie_element_411)" fill-opacity="1" d=" M0,-16.736000061035156 C-13.767000198364258,-16.736000061035156 -24.927000045776367,-5.576000213623047 -24.927000045776367,8.190999984741211 C-24.927000045776367,12.097000122070312 -13.562999725341797,16.736000061035156 0.20399999618530273,16.736000061035156 C13.970999717712402,16.736000061035156 24.927000045776367,12.437000274658203 24.927000045776367,8.190999984741211 C24.927000045776367,-5.576000213623047 13.767000198364258,-16.736000061035156 0,-16.736000061035156z"></path></g></g><g transform="matrix(1,0,0,1,270.545654296875,257.0455017089844)" opacity="1" style="display: block;"><path stroke-linecap="butt" stroke-linejoin="miter" fill-opacity="0" stroke-miterlimit="4" stroke="rgb(0,204,255)" stroke-opacity="1" stroke-width="4" d=" M26.8,1.88 C13.03,1.88 1.88,13.03 1.88,26.8 C1.88,30.71 13.24,35.35 27.01,35.35 C40.77,35.35 51.73,31.05 51.73,26.8 C51.73,13.03 40.57,1.88 26.8,1.88z"></path><g opacity="1" transform="matrix(1,0,0,1,26.802000045776367,18.611000061035156)"><path fill="url(#__lottie_element_407)" fill-opacity="1" d=" M0,-16.736000061035156 C-13.767000198364258,-16.736000061035156 -24.927000045776367,-5.576000213623047 -24.927000045776367,8.190999984741211 C-24.927000045776367,12.097000122070312 -13.562999725341797,16.736000061035156 0.20399999618530273,16.736000061035156 C13.970999717712402,16.736000061035156 24.927000045776367,12.437000274658203 24.927000045776367,8.190999984741211 C24.927000045776367,-5.576000213623047 13.767000198364258,-16.736000061035156 0,-16.736000061035156z"></path></g></g><g transform="matrix(1,0,0,1,215.22451782226562,309.1918640136719)" opacity="1" style="display: block;"><path stroke-linecap="butt" stroke-linejoin="miter" fill-opacity="0" stroke-miterlimit="4" stroke="rgb(0,204,255)" stroke-opacity="1" stroke-width="4" d=" M26.8,1.88 C13.03,1.88 1.88,13.03 1.88,26.8 C1.88,30.71 13.24,35.35 27.01,35.35 C40.77,35.35 51.73,31.05 51.73,26.8 C51.73,13.03 40.57,1.88 26.8,1.88z"></path><g opacity="1" transform="matrix(1,0,0,1,26.802000045776367,18.611000061035156)"><path fill="url(#__lottie_element_403)" fill-opacity="1" d=" M0,-16.736000061035156 C-13.767000198364258,-16.736000061035156 -24.927000045776367,-5.576000213623047 -24.927000045776367,8.190999984741211 C-24.927000045776367,12.097000122070312 -13.562999725341797,16.736000061035156 0.20399999618530273,16.736000061035156 C13.970999717712402,16.736000061035156 24.927000045776367,12.437000274658203 24.927000045776367,8.190999984741211 C24.927000045776367,-5.576000213623047 13.767000198364258,-16.736000061035156 0,-16.736000061035156z"></path></g></g><g transform="matrix(1,0,0,1,319.1823425292969,343.1560363769531)" opacity="1" style="display: block;"><path stroke-linecap="butt" stroke-linejoin="miter" fill-opacity="0" stroke-miterlimit="4" stroke="rgb(0,204,255)" stroke-opacity="1" stroke-width="4" d=" M26.8,1.88 C13.03,1.88 1.88,13.03 1.88,26.8 C1.88,30.71 13.24,35.35 27.01,35.35 C40.77,35.35 51.73,31.05 51.73,26.8 C51.73,13.03 40.57,1.88 26.8,1.88z"></path><g opacity="1" transform="matrix(1,0,0,1,26.802000045776367,18.611000061035156)"><path fill="url(#__lottie_element_399)" fill-opacity="1" d=" M0,-16.736000061035156 C-13.767000198364258,-16.736000061035156 -24.927000045776367,-5.576000213623047 -24.927000045776367,8.190999984741211 C-24.927000045776367,12.097000122070312 -13.562999725341797,16.736000061035156 0.20399999618530273,16.736000061035156 C13.970999717712402,16.736000061035156 24.927000045776367,12.437000274658203 24.927000045776367,8.190999984741211 C24.927000045776367,-5.576000213623047 13.767000198364258,-16.736000061035156 0,-16.736000061035156z"></path></g></g><g transform="matrix(1,0,0,1,428.0227966308594,357.5442810058594)" opacity="1" style="display: block;"><path stroke-linecap="butt" stroke-linejoin="miter" fill-opacity="0" stroke-miterlimit="4" stroke="rgb(0,204,255)" stroke-opacity="1" stroke-width="4" d=" M26.8,1.88 C13.03,1.88 1.88,13.03 1.88,26.8 C1.88,30.71 13.24,35.35 27.01,35.35 C40.77,35.35 51.73,31.05 51.73,26.8 C51.73,13.03 40.57,1.88 26.8,1.88z"></path><g opacity="1" transform="matrix(1,0,0,1,26.802000045776367,18.611000061035156)"><path fill="url(#__lottie_element_395)" fill-opacity="1" d=" M0,-16.736000061035156 C-13.767000198364258,-16.736000061035156 -24.927000045776367,-5.576000213623047 -24.927000045776367,8.190999984741211 C-24.927000045776367,12.097000122070312 -13.562999725341797,16.736000061035156 0.20399999618530273,16.736000061035156 C13.970999717712402,16.736000061035156 24.927000045776367,12.437000274658203 24.927000045776367,8.190999984741211 C24.927000045776367,-5.576000213623047 13.767000198364258,-16.736000061035156 0,-16.736000061035156z"></path></g></g><g transform="matrix(1,0,0,1,537.7913208007812,360.5575866699219)" opacity="1" style="display: block;"><path stroke-linecap="butt" stroke-linejoin="miter" fill-opacity="0" stroke-miterlimit="4" stroke="rgb(0,204,255)" stroke-opacity="1" stroke-width="4" d=" M26.8,1.88 C13.03,1.88 1.88,13.03 1.88,26.8 C1.88,30.71 13.24,35.35 27.01,35.35 C40.77,35.35 51.73,31.05 51.73,26.8 C51.73,13.03 40.57,1.88 26.8,1.88z"></path><g opacity="1" transform="matrix(1,0,0,1,26.802000045776367,18.611000061035156)"><path fill="url(#__lottie_element_391)" fill-opacity="1" d=" M0,-16.736000061035156 C-13.767000198364258,-16.736000061035156 -24.927000045776367,-5.576000213623047 -24.927000045776367,8.190999984741211 C-24.927000045776367,12.097000122070312 -13.562999725341797,16.736000061035156 0.20399999618530273,16.736000061035156 C13.970999717712402,16.736000061035156 24.927000045776367,12.437000274658203 24.927000045776367,8.190999984741211 C24.927000045776367,-5.576000213623047 13.767000198364258,-16.736000061035156 0,-16.736000061035156z"></path></g></g><g transform="matrix(1,0,0,1,647.3543090820312,353.2415771484375)" opacity="1" style="display: block;"><path stroke-linecap="butt" stroke-linejoin="miter" fill-opacity="0" stroke-miterlimit="4" stroke="rgb(0,204,255)" stroke-opacity="1" stroke-width="4" d=" M26.8,1.88 C13.03,1.88 1.88,13.03 1.88,26.8 C1.88,30.71 13.24,35.35 27.01,35.35 C40.77,35.35 51.73,31.05 51.73,26.8 C51.73,13.03 40.57,1.88 26.8,1.88z"></path><g opacity="1" transform="matrix(1,0,0,1,26.802000045776367,18.611000061035156)"><path fill="url(#__lottie_element_387)" fill-opacity="1" d=" M0,-16.736000061035156 C-13.767000198364258,-16.736000061035156 -24.927000045776367,-5.576000213623047 -24.927000045776367,8.190999984741211 C-24.927000045776367,12.097000122070312 -13.562999725341797,16.736000061035156 0.20399999618530273,16.736000061035156 C13.970999717712402,16.736000061035156 24.927000045776367,12.437000274658203 24.927000045776367,8.190999984741211 C24.927000045776367,-5.576000213623047 13.767000198364258,-16.736000061035156 0,-16.736000061035156z"></path></g></g><g transform="matrix(1,0,0,1,755.2333984375,333.07952880859375)" opacity="1" style="display: block;"><path stroke-linecap="butt" stroke-linejoin="miter" fill-opacity="0" stroke-miterlimit="4" stroke="rgb(0,204,255)" stroke-opacity="1" stroke-width="4" d=" M26.8,1.88 C13.03,1.88 1.88,13.03 1.88,26.8 C1.88,30.71 13.24,35.35 27.01,35.35 C40.77,35.35 51.73,31.05 51.73,26.8 C51.73,13.03 40.57,1.88 26.8,1.88z"></path><g opacity="1" transform="matrix(1,0,0,1,26.802000045776367,18.611000061035156)"><path fill="url(#__lottie_element_383)" fill-opacity="1" d=" M0,-16.736000061035156 C-13.767000198364258,-16.736000061035156 -24.927000045776367,-5.576000213623047 -24.927000045776367,8.190999984741211 C-24.927000045776367,12.097000122070312 -13.562999725341797,16.736000061035156 0.20399999618530273,16.736000061035156 C13.970999717712402,16.736000061035156 24.927000045776367,12.437000274658203 24.927000045776367,8.190999984741211 C24.927000045776367,-5.576000213623047 13.767000198364258,-16.736000061035156 0,-16.736000061035156z"></path></g></g><g transform="matrix(1,0,0,1,816.084228515625,274.47613525390625)" opacity="1" style="display: block;"><path stroke-linecap="butt" stroke-linejoin="miter" fill-opacity="0" stroke-miterlimit="4" stroke="rgb(0,204,255)" stroke-opacity="1" stroke-width="4" d=" M26.8,1.88 C13.03,1.88 1.88,13.03 1.88,26.8 C1.88,30.71 13.24,35.35 27.01,35.35 C40.77,35.35 51.73,31.05 51.73,26.8 C51.73,13.03 40.57,1.88 26.8,1.88z"></path><g opacity="1" transform="matrix(1,0,0,1,26.802000045776367,18.611000061035156)"><path fill="url(#__lottie_element_379)" fill-opacity="1" d=" M0,-16.736000061035156 C-13.767000198364258,-16.736000061035156 -24.927000045776367,-5.576000213623047 -24.927000045776367,8.190999984741211 C-24.927000045776367,12.097000122070312 -13.562999725341797,16.736000061035156 0.20399999618530273,16.736000061035156 C13.970999717712402,16.736000061035156 24.927000045776367,12.437000274658203 24.927000045776367,8.190999984741211 C24.927000045776367,-5.576000213623047 13.767000198364258,-16.736000061035156 0,-16.736000061035156z"></path></g></g><g transform="matrix(1,0,0,1,709.2601318359375,251.69876098632812)" opacity="1" style="display: block;"><path stroke-linecap="butt" stroke-linejoin="miter" fill-opacity="0" stroke-miterlimit="4" stroke="rgb(0,204,255)" stroke-opacity="1" stroke-width="4" d=" M26.8,1.88 C13.03,1.88 1.88,13.03 1.88,26.8 C1.88,30.71 13.24,35.35 27.01,35.35 C40.77,35.35 51.73,31.05 51.73,26.8 C51.73,13.03 40.57,1.88 26.8,1.88z"></path><g opacity="1" transform="matrix(1,0,0,1,26.802000045776367,18.611000061035156)"><path fill="url(#__lottie_element_375)" fill-opacity="1" d=" M0,-16.736000061035156 C-13.767000198364258,-16.736000061035156 -24.927000045776367,-5.576000213623047 -24.927000045776367,8.190999984741211 C-24.927000045776367,12.097000122070312 -13.562999725341797,16.736000061035156 0.20399999618530273,16.736000061035156 C13.970999717712402,16.736000061035156 24.927000045776367,12.437000274658203 24.927000045776367,8.190999984741211 C24.927000045776367,-5.576000213623047 13.767000198364258,-16.736000061035156 0,-16.736000061035156z"></path></g></g><g transform="matrix(1,0,0,1,599.582275390625,245.78439331054688)" opacity="1" style="display: block;"><path stroke-linecap="butt" stroke-linejoin="miter" fill-opacity="0" stroke-miterlimit="4" stroke="rgb(0,204,255)" stroke-opacity="1" stroke-width="4" d=" M26.8,1.88 C13.03,1.88 1.88,13.03 1.88,26.8 C1.88,30.71 13.24,35.35 27.01,35.35 C40.77,35.35 51.73,31.05 51.73,26.8 C51.73,13.03 40.57,1.88 26.8,1.88z"></path><g opacity="1" transform="matrix(1,0,0,1,26.802000045776367,18.611000061035156)"><path fill="url(#__lottie_element_371)" fill-opacity="1" d=" M0,-16.736000061035156 C-13.767000198364258,-16.736000061035156 -24.927000045776367,-5.576000213623047 -24.927000045776367,8.190999984741211 C-24.927000045776367,12.097000122070312 -13.562999725341797,16.736000061035156 0.20399999618530273,16.736000061035156 C13.970999717712402,16.736000061035156 24.927000045776367,12.437000274658203 24.927000045776367,8.190999984741211 C24.927000045776367,-5.576000213623047 13.767000198364258,-16.736000061035156 0,-16.736000061035156z"></path></g></g><g transform="matrix(1,0,0,1,514.5,244.76800537109375)" opacity="1" style="display: block;"><path stroke-linecap="butt" stroke-linejoin="miter" fill-opacity="0" stroke-miterlimit="4" stroke="rgb(0,204,255)" stroke-opacity="1" stroke-width="4" d=" M26.8,1.88 C13.03,1.88 1.88,13.03 1.88,26.8 C1.88,30.71 13.24,35.35 27.01,35.35 C40.77,35.35 51.73,31.05 51.73,26.8 C51.73,13.03 40.57,1.88 26.8,1.88z"></path><g opacity="1" transform="matrix(1,0,0,1,26.802000045776367,18.611000061035156)"><path fill="url(#__lottie_element_367)" fill-opacity="1" d=" M0,-16.736000061035156 C-13.767000198364258,-16.736000061035156 -24.927000045776367,-5.576000213623047 -24.927000045776367,8.190999984741211 C-24.927000045776367,12.097000122070312 -13.562999725341797,16.736000061035156 0.20399999618530273,16.736000061035156 C13.970999717712402,16.736000061035156 24.927000045776367,12.437000274658203 24.927000045776367,8.190999984741211 C24.927000045776367,-5.576000213623047 13.767000198364258,-16.736000061035156 0,-16.736000061035156z"></path></g></g><g transform="matrix(1,0,0,1,514.5,244.76800537109375)" opacity="1" style="display: block;"><path stroke-linecap="butt" stroke-linejoin="miter" fill-opacity="0" stroke-miterlimit="4" stroke="rgb(0,204,255)" stroke-opacity="1" stroke-width="4" d=" M26.8,1.88 C13.03,1.88 1.88,13.03 1.88,26.8 C1.88,30.71 13.24,35.35 27.01,35.35 C40.77,35.35 51.73,31.05 51.73,26.8 C51.73,13.03 40.57,1.88 26.8,1.88z"></path><g opacity="1" transform="matrix(1,0,0,1,26.802000045776367,18.611000061035156)"><path fill="url(#__lottie_element_363)" fill-opacity="1" d=" M0,-16.736000061035156 C-13.767000198364258,-16.736000061035156 -24.927000045776367,-5.576000213623047 -24.927000045776367,8.190999984741211 C-24.927000045776367,12.097000122070312 -13.562999725341797,16.736000061035156 0.20399999618530273,16.736000061035156 C13.970999717712402,16.736000061035156 24.927000045776367,12.437000274658203 24.927000045776367,8.190999984741211 C24.927000045776367,-5.576000213623047 13.767000198364258,-16.736000061035156 0,-16.736000061035156z"></path></g></g><g style="display: block;" transform="matrix(1,0,0,1,514.5,244.76800537109375)" opacity="1"><path stroke-linecap="butt" stroke-linejoin="miter" fill-opacity="0" stroke-miterlimit="4" stroke="rgb(0,204,255)" stroke-opacity="1" stroke-width="4" d=" M26.8,1.88 C13.03,1.88 1.88,13.03 1.88,26.8 C1.88,30.71 13.24,35.35 27.01,35.35 C40.77,35.35 51.73,31.05 51.73,26.8 C51.73,13.03 40.57,1.88 26.8,1.88z"></path><g opacity="1" transform="matrix(1,0,0,1,26.802000045776367,18.611000061035156)"><path fill="url(#__lottie_element_359)" fill-opacity="1" d=" M0,-16.736000061035156 C-13.767000198364258,-16.736000061035156 -24.927000045776367,-5.576000213623047 -24.927000045776367,8.190999984741211 C-24.927000045776367,12.097000122070312 -13.562999725341797,16.736000061035156 0.20399999618530273,16.736000061035156 C13.970999717712402,16.736000061035156 24.927000045776367,12.437000274658203 24.927000045776367,8.190999984741211 C24.927000045776367,-5.576000213623047 13.767000198364258,-16.736000061035156 0,-16.736000061035156z"></path></g></g><g style="display: none;" transform="matrix(1,0,0,1,785.2527465820312,263.201171875)" opacity="1"><path stroke-linecap="butt" stroke-linejoin="miter" fill-opacity="0" stroke-miterlimit="4" stroke="rgb(0,204,255)" stroke-opacity="1" stroke-width="4" d=" M26.8,1.88 C13.03,1.88 1.88,13.03 1.88,26.8 C1.88,30.71 13.24,35.35 27.01,35.35 C40.77,35.35 51.73,31.05 51.73,26.8 C51.73,13.03 40.57,1.88 26.8,1.88z"></path><g opacity="1" transform="matrix(1,0,0,1,26.802000045776367,18.611000061035156)"><path fill="url(#__lottie_element_355)" fill-opacity="1" d=" M0,-16.736000061035156 C-13.767000198364258,-16.736000061035156 -24.927000045776367,-5.576000213623047 -24.927000045776367,8.190999984741211 C-24.927000045776367,12.097000122070312 -13.562999725341797,16.736000061035156 0.20399999618530273,16.736000061035156 C13.970999717712402,16.736000061035156 24.927000045776367,12.437000274658203 24.927000045776367,8.190999984741211 C24.927000045776367,-5.576000213623047 13.767000198364258,-16.736000061035156 0,-16.736000061035156z"></path></g></g><g style="display: none;" transform="matrix(1,0,0,1,676.4305419921875,249.13385009765625)" opacity="1"><path stroke-linecap="butt" stroke-linejoin="miter" fill-opacity="0" stroke-miterlimit="4" stroke="rgb(0,204,255)" stroke-opacity="1" stroke-width="4" d=" M26.8,1.88 C13.03,1.88 1.88,13.03 1.88,26.8 C1.88,30.71 13.24,35.35 27.01,35.35 C40.77,35.35 51.73,31.05 51.73,26.8 C51.73,13.03 40.57,1.88 26.8,1.88z"></path><g opacity="1" transform="matrix(1,0,0,1,26.802000045776367,18.611000061035156)"><path fill="url(#__lottie_element_351)" fill-opacity="1" d=" M0,-16.736000061035156 C-13.767000198364258,-16.736000061035156 -24.927000045776367,-5.576000213623047 -24.927000045776367,8.190999984741211 C-24.927000045776367,12.097000122070312 -13.562999725341797,16.736000061035156 0.20399999618530273,16.736000061035156 C13.970999717712402,16.736000061035156 24.927000045776367,12.437000274658203 24.927000045776367,8.190999984741211 C24.927000045776367,-5.576000213623047 13.767000198364258,-16.736000061035156 0,-16.736000061035156z"></path></g></g><g transform="matrix(1,0,0,1,415.8909912109375,156.3699951171875)" opacity="1" style="display: block;"><path stroke-linecap="butt" stroke-linejoin="miter" fill-opacity="0" stroke-miterlimit="4" stroke="rgb(0,204,255)" stroke-opacity="1" stroke-width="4" d=" M127.11,1.88 C57.94,1.88 1.88,57.94 1.88,127.11 C1.88,140.86 57.94,152 127.11,152 C196.27,152 252.34,140.86 252.34,127.11 C252.34,57.94 196.27,1.88 127.11,1.88z"></path><g opacity="1" transform="matrix(1,0,0,1,127.10900115966797,76.93900299072266)"><path fill="rgb(0,0,0)" fill-opacity="1" d=" M0,-75.06400299072266 C-69.16500091552734,-75.06400299072266 -125.23400115966797,-18.9950008392334 -125.23400115966797,50.16999816894531 C-125.23400115966797,63.917999267578125 -69.16500091552734,75.06400299072266 0,75.06400299072266 C69.16500091552734,75.06400299072266 125.23400115966797,63.917999267578125 125.23400115966797,50.16999816894531 C125.23400115966797,-18.9950008392334 69.16500091552734,-75.06400299072266 0,-75.06400299072266z"></path></g></g><g transform="matrix(1,0,0,1,543,318.5)" opacity="1" style="display: block;"><g opacity="1" transform="matrix(1,0,0,1,0,0)"><path stroke-linecap="butt" stroke-linejoin="miter" fill-opacity="0" stroke-miterlimit="4" stroke="rgb(0,204,255)" stroke-opacity="1" stroke-width="2" d=" M300.885009765625,129.2259979248047 C345.18499755859375,118.66500091552734 383.4010009765625,105.14900207519531 406.23699951171875,88.1240005493164"></path></g></g><g transform="matrix(1,0,0,1,543,330.5)" opacity="1" style="display: block;"><g opacity="1" transform="matrix(1,0,0,1,0,0)"><path fill="rgb(0,0,0)" fill-opacity="1" d=" M110.9739990234375,-66.43099975585938 C109.89900207519531,-73.5989990234375 108.18900299072266,-80.93499755859375 105.63400268554688,-87.60099792480469"></path><path stroke-linecap="butt" stroke-linejoin="miter" fill-opacity="0" stroke-miterlimit="4" stroke="rgb(0,204,255)" stroke-opacity="1" stroke-width="2" d=" M110.9739990234375,-66.43099975585938 C109.89900207519531,-73.5989990234375 108.18900299072266,-80.93499755859375 105.63400268554688,-87.60099792480469"></path></g></g><g transform="matrix(1,0,0,1,528,330.5)" opacity="1" style="display: block;"><g opacity="1" transform="matrix(1,0,0,1,0,0)"><path fill="rgb(0,0,0)" fill-opacity="1" d=" M112.29000091552734,-53.4739990234375 C112.04000091552734,-58.01499938964844 111.5530014038086,-62.87799835205078 110.76200103759766,-67.79399871826172"></path><path stroke-linecap="butt" stroke-linejoin="miter" fill-opacity="0" stroke-miterlimit="4" stroke="rgb(0,204,255)" stroke-opacity="1" stroke-width="2" d=" M112.29000091552734,-53.4739990234375 C112.04000091552734,-58.01499938964844 111.5530014038086,-62.87799835205078 110.76200103759766,-67.79399871826172"></path></g></g></g><g clip-path="url(#__lottie_element_241)" style="display: none;"><g style="display: none;"><path stroke-linecap="butt" stroke-linejoin="miter" fill-opacity="0" stroke-miterlimit="4"></path><g><path></path></g></g><g style="display: none;"><g><path></path><path stroke-linecap="butt" stroke-linejoin="miter" fill-opacity="0" stroke-miterlimit="4"></path></g></g><g style="display: none;"><path stroke-linecap="butt" stroke-linejoin="miter" fill-opacity="0" stroke-miterlimit="4"></path><g><path fill="url(#__lottie_element_324)"></path></g></g><g style="display: none;"><path stroke-linecap="butt" stroke-linejoin="miter" fill-opacity="0" stroke-miterlimit="4"></path><g><path fill="url(#__lottie_element_320)"></path></g></g><g style="display: none;"><path stroke-linecap="butt" stroke-linejoin="miter" fill-opacity="0" stroke-miterlimit="4"></path><g><path fill="url(#__lottie_element_316)"></path></g></g><g style="display: none;"><path stroke-linecap="butt" stroke-linejoin="miter" fill-opacity="0" stroke-miterlimit="4"></path><g><path fill="url(#__lottie_element_312)"></path></g></g><g style="display: none;"><path stroke-linecap="butt" stroke-linejoin="miter" fill-opacity="0" stroke-miterlimit="4"></path><g><path fill="url(#__lottie_element_308)"></path></g></g><g style="display: none;"><path stroke-linecap="butt" stroke-linejoin="miter" fill-opacity="0" stroke-miterlimit="4"></path><g><path fill="url(#__lottie_element_304)"></path></g></g><g style="display: none;"><path stroke-linecap="butt" stroke-linejoin="miter" fill-opacity="0" stroke-miterlimit="4"></path><g><path fill="url(#__lottie_element_300)"></path></g></g><g style="display: none;"><path stroke-linecap="butt" stroke-linejoin="miter" fill-opacity="0" stroke-miterlimit="4"></path><g><path fill="url(#__lottie_element_296)"></path></g></g><g style="display: none;"><path stroke-linecap="butt" stroke-linejoin="miter" fill-opacity="0" stroke-miterlimit="4"></path><g><path fill="url(#__lottie_element_292)"></path></g></g><g style="display: none;"><path stroke-linecap="butt" stroke-linejoin="miter" fill-opacity="0" stroke-miterlimit="4"></path><g><path fill="url(#__lottie_element_288)"></path></g></g><g style="display: none;"><path stroke-linecap="butt" stroke-linejoin="miter" fill-opacity="0" stroke-miterlimit="4"></path><g><path fill="url(#__lottie_element_284)"></path></g></g><g style="display: none;"><path stroke-linecap="butt" stroke-linejoin="miter" fill-opacity="0" stroke-miterlimit="4"></path><g><path fill="url(#__lottie_element_280)"></path></g></g><g style="display: none;"><path stroke-linecap="butt" stroke-linejoin="miter" fill-opacity="0" stroke-miterlimit="4"></path><g><path fill="url(#__lottie_element_276)"></path></g></g><g style="display: none;"><path stroke-linecap="butt" stroke-linejoin="miter" fill-opacity="0" stroke-miterlimit="4"></path><g><path fill="url(#__lottie_element_272)"></path></g></g><g style="display: none;"><path stroke-linecap="butt" stroke-linejoin="miter" fill-opacity="0" stroke-miterlimit="4"></path><g><path fill="url(#__lottie_element_268)"></path></g></g><g style="display: none;"><path stroke-linecap="butt" stroke-linejoin="miter" fill-opacity="0" stroke-miterlimit="4"></path><g><path fill="url(#__lottie_element_264)"></path></g></g><g style="display: none;"><path stroke-linecap="butt" stroke-linejoin="miter" fill-opacity="0" stroke-miterlimit="4"></path><g><path fill="url(#__lottie_element_260)"></path></g></g><g style="display: none;"><path stroke-linecap="butt" stroke-linejoin="miter" fill-opacity="0" stroke-miterlimit="4"></path><g><path></path></g></g><g style="display: none;"><g><path stroke-linecap="butt" stroke-linejoin="miter" fill-opacity="0" stroke-miterlimit="4"></path></g></g><g style="display: none;"><g><path></path><path stroke-linecap="butt" stroke-linejoin="miter" fill-opacity="0" stroke-miterlimit="4"></path></g></g><g style="display: none;"><g><path></path><path stroke-linecap="butt" stroke-linejoin="miter" fill-opacity="0" stroke-miterlimit="4"></path></g></g></g><g clip-path="url(#__lottie_element_150)" style="display: none;"><g style="display: none;"><path stroke-linecap="butt" stroke-linejoin="miter" fill-opacity="0" stroke-miterlimit="4"></path><g><path></path></g></g><g style="display: none;"><g><path></path><path stroke-linecap="butt" stroke-linejoin="miter" fill-opacity="0" stroke-miterlimit="4"></path></g></g><g style="display: none;"><path stroke-linecap="butt" stroke-linejoin="miter" fill-opacity="0" stroke-miterlimit="4"></path><g><path fill="url(#__lottie_element_233)"></path></g></g><g style="display: none;"><path stroke-linecap="butt" stroke-linejoin="miter" fill-opacity="0" stroke-miterlimit="4"></path><g><path fill="url(#__lottie_element_229)"></path></g></g><g style="display: none;"><path stroke-linecap="butt" stroke-linejoin="miter" fill-opacity="0" stroke-miterlimit="4"></path><g><path fill="url(#__lottie_element_225)"></path></g></g><g style="display: none;"><path stroke-linecap="butt" stroke-linejoin="miter" fill-opacity="0" stroke-miterlimit="4"></path><g><path fill="url(#__lottie_element_221)"></path></g></g><g style="display: none;"><path stroke-linecap="butt" stroke-linejoin="miter" fill-opacity="0" stroke-miterlimit="4"></path><g><path fill="url(#__lottie_element_217)"></path></g></g><g style="display: none;"><path stroke-linecap="butt" stroke-linejoin="miter" fill-opacity="0" stroke-miterlimit="4"></path><g><path fill="url(#__lottie_element_213)"></path></g></g><g style="display: none;"><path stroke-linecap="butt" stroke-linejoin="miter" fill-opacity="0" stroke-miterlimit="4"></path><g><path fill="url(#__lottie_element_209)"></path></g></g><g style="display: none;"><path stroke-linecap="butt" stroke-linejoin="miter" fill-opacity="0" stroke-miterlimit="4"></path><g><path fill="url(#__lottie_element_205)"></path></g></g><g style="display: none;"><path stroke-linecap="butt" stroke-linejoin="miter" fill-opacity="0" stroke-miterlimit="4"></path><g><path fill="url(#__lottie_element_201)"></path></g></g><g style="display: none;"><path stroke-linecap="butt" stroke-linejoin="miter" fill-opacity="0" stroke-miterlimit="4"></path><g><path fill="url(#__lottie_element_197)"></path></g></g><g style="display: none;"><path stroke-linecap="butt" stroke-linejoin="miter" fill-opacity="0" stroke-miterlimit="4"></path><g><path fill="url(#__lottie_element_193)"></path></g></g><g style="display: none;"><path stroke-linecap="butt" stroke-linejoin="miter" fill-opacity="0" stroke-miterlimit="4"></path><g><path fill="url(#__lottie_element_189)"></path></g></g><g style="display: none;"><path stroke-linecap="butt" stroke-linejoin="miter" fill-opacity="0" stroke-miterlimit="4"></path><g><path fill="url(#__lottie_element_185)"></path></g></g><g style="display: none;"><path stroke-linecap="butt" stroke-linejoin="miter" fill-opacity="0" stroke-miterlimit="4"></path><g><path fill="url(#__lottie_element_181)"></path></g></g><g style="display: none;"><path stroke-linecap="butt" stroke-linejoin="miter" fill-opacity="0" stroke-miterlimit="4"></path><g><path fill="url(#__lottie_element_177)"></path></g></g><g style="display: none;"><path stroke-linecap="butt" stroke-linejoin="miter" fill-opacity="0" stroke-miterlimit="4"></path><g><path fill="url(#__lottie_element_173)"></path></g></g><g style="display: none;"><path stroke-linecap="butt" stroke-linejoin="miter" fill-opacity="0" stroke-miterlimit="4"></path><g><path fill="url(#__lottie_element_169)"></path></g></g><g style="display: none;"><path stroke-linecap="butt" stroke-linejoin="miter" fill-opacity="0" stroke-miterlimit="4"></path><g><path></path></g></g><g style="display: none;"><g><path stroke-linecap="butt" stroke-linejoin="miter" fill-opacity="0" stroke-miterlimit="4"></path></g></g><g style="display: none;"><g><path></path><path stroke-linecap="butt" stroke-linejoin="miter" fill-opacity="0" stroke-miterlimit="4"></path></g></g><g style="display: none;"><g><path></path><path stroke-linecap="butt" stroke-linejoin="miter" fill-opacity="0" stroke-miterlimit="4"></path></g></g></g></g></svg>